# xmcd
#
# Track frame offsets: 
#        150
#        11912
#        21822
#        33480
#        44775
#        55595
#        66132
#        74927
#        85747
#        96292
#        105917
#        115202
#        123692
#        131157
#        141727
#        150940
#        161232
#        170377
#        179915
#        190317
#
# Disc length: 2681 seconds
#
# Revision: 1
# Processed by: cddbd v1.5.2PL0 Copyright (c) Steve Scherf et al.
# Submitted via: ExactAudioCopyFreeDBPlugin 1.0
#
DISCID=2f0a7714
DTITLE=Various Artist - Crescent City Soul:  The Fats Domino Jukebox
DYEAR=2002
DGENRE=Rhythm and Blues
TTITLE0=Fats Domino - The Fat Man
TTITLE1=Fats Domino - Goin' Home
TTITLE2=Fats Domino - Going to the River
TTITLE3=Fats Domino - Ain't That a Shame
TTITLE4=Fats Domino - All By Myself
TTITLE5=Fats Domino - Poor Me
TTITLE6=Fats Domino - I'm in Love Again
TTITLE7=Fats Domino - Blueberry Hill
TTITLE8=Fats Domino - Blue Monday
TTITLE9=Fats Domino - I'm Walkin'
TTITLE10=Fats Domino - It's You I Love
TTITLE11=Fats Domino - Valley of Tears
TTITLE12=Fats Domino - Whole Lotta Loving
TTITLE13=Fats Domino - I Want to Walk You Home
TTITLE14=Fats Domino - I'm Gonna Be a Wheel Someday
TTITLE15=Fats Domino - Be My Guest
TTITLE16=Fats Domino - Walking to New Orleans
TTITLE17=Fats Domino - My Girl Josephine
TTITLE18=Fats Domino - Let the Four Winds Blow
TTITLE19=Fats Domino - Jambalaya (On the Bayou)
EXTD=EMI Records 37600\n© 2002
EXTT0=
EXTT1=
EXTT2=
EXTT3=
EXTT4=
EXTT5=
EXTT6=
EXTT7=
EXTT8=
EXTT9=
EXTT10=
EXTT11=
EXTT12=
EXTT13=
EXTT14=
EXTT15=
EXTT16=
EXTT17=
EXTT18=
EXTT19=
PLAYORDER=
